<svg width="30" height="37" viewBox="0 0 30 37" fill="none" xmlns="http://www.w3.org/2000/svg">
  <path d="M25.052 19.4314C25.07 18.0542 25.441 16.7039 26.1303 15.506C26.8197 14.3082 27.805 13.3018 28.9948 12.5805C28.239 11.516 27.2419 10.6399 26.0827 10.0219C24.9236 9.40389 23.6343 9.06095 22.3172 9.02031C19.5077 8.72948 16.784 10.6783 15.3524 10.6783C13.893 10.6783 11.6887 9.04919 9.31503 9.09735C7.77969 9.14627 6.28337 9.58658 4.97188 10.3754C3.66039 11.1642 2.57844 12.2746 1.83147 13.5983C-1.40427 19.1232 1.0093 27.243 4.10887 31.7089C5.65965 33.8957 7.47206 36.3384 9.84358 36.2518C12.1642 36.1569 13.031 34.7924 15.8322 34.7924C18.6075 34.7924 19.4206 36.2518 21.8402 36.1967C24.3304 36.1569 25.8994 34.0002 27.3957 31.7927C28.51 30.2345 29.3674 28.5123 29.9362 26.69C28.4894 26.0866 27.2548 25.0765 26.3863 23.7857C25.5178 22.4949 25.0537 20.9805 25.052 19.4314Z" fill="white"/>
  <path d="M20.4816 6.08325C21.8393 4.47581 22.5082 2.40971 22.3462 0.32373C20.2719 0.538594 18.3558 1.51632 16.9797 3.06209C16.3069 3.81723 15.7916 4.69576 15.4632 5.64742C15.1349 6.59909 15 7.60525 15.0662 8.60838C16.1037 8.61892 17.1302 8.39713 18.0682 7.95974C19.0062 7.52235 19.8314 6.88074 20.4816 6.08325Z" fill="white"/>
  </svg>
  