<svg width="82" height="97" viewBox="0 0 82 97" fill="none" xmlns="http://www.w3.org/2000/svg">
  <mask id="path-1-inside-1_6278_2028" fill="white">
  <path fill-rule="evenodd" clip-rule="evenodd" d="M50.4849 80.1486C68.4051 75.878 81.7281 59.8054 81.7281 40.6303C81.7281 18.1908 63.4827 0 40.9759 0C18.469 0 0.223633 18.1908 0.223633 40.6303C0.223633 59.8052 13.5463 75.8776 31.4661 80.1485L40.9756 96.5701L50.4849 80.1486Z"/>
  </mask>
  <path fill-rule="evenodd" clip-rule="evenodd" d="M50.4849 80.1486C68.4051 75.878 81.7281 59.8054 81.7281 40.6303C81.7281 18.1908 63.4827 0 40.9759 0C18.469 0 0.223633 18.1908 0.223633 40.6303C0.223633 59.8052 13.5463 75.8776 31.4661 80.1485L40.9756 96.5701L50.4849 80.1486Z" fill="#8E6947"/>
  <path d="M50.4849 80.1486L50.1094 78.5728L49.432 78.7342L49.083 79.3368L50.4849 80.1486ZM31.4661 80.1485L32.868 79.3367L32.5191 78.7341L31.8417 78.5726L31.4661 80.1485ZM40.9756 96.5701L39.5737 97.3819L40.9756 99.8028L42.3775 97.3819L40.9756 96.5701ZM80.1081 40.6303C80.1081 59.0353 67.3197 74.4713 50.1094 78.5728L50.8605 81.7245C69.4905 77.2847 83.3481 60.5755 83.3481 40.6303H80.1081ZM40.9759 1.62C62.5926 1.62 80.1081 19.0901 80.1081 40.6303H83.3481C83.3481 17.2915 64.3728 -1.62 40.9759 -1.62V1.62ZM1.84363 40.6303C1.84363 19.0901 19.3591 1.62 40.9759 1.62V-1.62C17.5789 -1.62 -1.39637 17.2915 -1.39637 40.6303H1.84363ZM31.8417 78.5726C14.6317 74.471 1.84363 59.035 1.84363 40.6303H-1.39637C-1.39637 60.5753 12.4608 77.2843 31.0905 81.7243L31.8417 78.5726ZM42.3775 95.7582L32.868 79.3367L30.0642 80.9603L39.5737 97.3819L42.3775 95.7582ZM49.083 79.3368L39.5737 95.7582L42.3775 97.3819L51.8868 80.9605L49.083 79.3368Z" fill="white" mask="url(#path-1-inside-1_6278_2028)"/>
  </svg>
  