<svg width="34" height="37" viewBox="0 0 34 37" fill="none" xmlns="http://www.w3.org/2000/svg">
  <path d="M1.00488 2.56598C1.00488 1.79327 1.19629 1.21727 1.50385 0.836424L18.7199 18.0337V18.2186L1.51597 35.4225C1.19882 35.0568 1.00488 34.4834 1.00488 33.7053V2.56598Z" fill="white" stroke="#7A5CCF" stroke-width="0.5"/>
  <path d="M31.6645 16.3184L31.6652 16.3188C32.6053 16.8487 33.0167 17.5148 33.0167 18.1298C33.0167 18.7451 32.6048 19.4152 31.6642 19.9527C31.6642 19.9528 31.6641 19.9528 31.664 19.9529L24.8135 23.8458L19.2051 18.2356V18.0354L24.8147 12.4258L31.6645 16.3184Z" fill="white" stroke="#7A5CCF" stroke-width="0.5"/>
  <path d="M1.75771 35.6863L18.9549 18.4891L24.4917 24.0277L4.20165 35.5689C4.20133 35.5691 4.20101 35.5693 4.2007 35.5694C3.16937 36.145 2.30854 36.1115 1.75771 35.6863Z" fill="white" stroke="#7A5CCF" stroke-width="0.5"/>
  <path d="M4.20004 0.718376L24.4915 12.2454L18.953 17.7821L1.75757 0.601627C2.3099 0.172913 3.17266 0.130839 4.19942 0.718021L4.20004 0.718376Z" fill="white" stroke="#7A5CCF" stroke-width="0.5"/>
  <g opacity="0.2">
  <mask id="path-5-inside-1_6453_29629" fill="white">
  <path fill-rule="evenodd" clip-rule="evenodd" d="M24.7742 23.9573L4.33817 35.5684C3.19628 36.225 2.1781 36.1793 1.52152 35.5836L1.41113 35.694L1.52152 35.7872C2.1781 36.381 3.19628 36.4286 4.33817 35.772L24.915 24.0829L24.7742 23.9573Z"/>
  </mask>
  <path fill-rule="evenodd" clip-rule="evenodd" d="M24.7742 23.9573L4.33817 35.5684C3.19628 36.225 2.1781 36.1793 1.52152 35.5836L1.41113 35.694L1.52152 35.7872C2.1781 36.381 3.19628 36.4286 4.33817 35.772L24.915 24.0829L24.7742 23.9573Z" fill="black"/>
  <path d="M24.7742 23.9573L25.107 23.5841L24.8392 23.3453L24.5272 23.5225L24.7742 23.9573ZM4.33817 35.5684L4.09117 35.1336L4.08894 35.1349L4.33817 35.5684ZM1.52152 35.5836L1.85748 35.2133L1.50474 34.8933L1.16796 35.2301L1.52152 35.5836ZM1.41113 35.694L1.05758 35.3404L0.673037 35.725L1.08846 36.0759L1.41113 35.694ZM1.52152 35.7872L1.85689 35.4164L1.85063 35.4107L1.84419 35.4053L1.52152 35.7872ZM4.33817 35.772L4.0912 35.3373L4.08894 35.3386L4.33817 35.772ZM24.915 24.0829L25.162 24.5176L25.7678 24.1735L25.2478 23.7097L24.915 24.0829ZM24.5272 23.5225L4.09117 35.1336L4.58517 36.0031L25.0212 24.392L24.5272 23.5225ZM4.08894 35.1349C3.05925 35.727 2.29682 35.6119 1.85748 35.2133L1.18555 35.9539C2.05938 36.7467 3.33332 36.7229 4.58741 36.0018L4.08894 35.1349ZM1.16796 35.2301L1.05758 35.3404L1.76469 36.0475L1.87507 35.9372L1.16796 35.2301ZM1.08846 36.0759L1.19884 36.1692L1.84419 35.4053L1.7338 35.312L1.08846 36.0759ZM1.18614 36.1581C2.05935 36.9478 3.3325 36.927 4.58741 36.2055L4.08894 35.3386C3.06007 35.9302 2.29685 35.8143 1.85689 35.4164L1.18614 36.1581ZM4.58514 36.2068L25.162 24.5176L24.668 23.6481L4.0912 35.3373L4.58514 36.2068ZM25.2478 23.7097L25.107 23.5841L24.4414 24.3304L24.5822 24.456L25.2478 23.7097Z" fill="#7A5CCF" mask="url(#path-5-inside-1_6453_29629)"/>
  </g>
  <g opacity="0.12">
  <mask id="path-7-inside-2_6453_29629" fill="white">
  <path fill-rule="evenodd" clip-rule="evenodd" d="M31.7862 19.9663L24.7598 23.9572L24.8854 24.0828L31.771 20.17C32.7568 19.6066 33.2421 18.872 33.2421 18.1355C33.1793 18.8092 32.6788 19.4506 31.7862 19.9663Z"/>
  </mask>
  <path fill-rule="evenodd" clip-rule="evenodd" d="M31.7862 19.9663L24.7598 23.9572L24.8854 24.0828L31.771 20.17C32.7568 19.6066 33.2421 18.872 33.2421 18.1355C33.1793 18.8092 32.6788 19.4506 31.7862 19.9663Z" fill="black"/>
  <path d="M31.7862 19.9663L32.0331 20.4011L32.0363 20.3992L31.7862 19.9663ZM24.7598 23.9572L24.5128 23.5225L23.9421 23.8466L24.4062 24.3108L24.7598 23.9572ZM24.8854 24.0828L24.5318 24.4364L24.8012 24.7058L25.1324 24.5175L24.8854 24.0828ZM31.771 20.17L32.018 20.6047L32.019 20.6041L31.771 20.17ZM33.2421 18.1355H33.7421L32.7443 18.0891L33.2421 18.1355ZM31.5392 19.5316L24.5128 23.5225L25.0067 24.392L32.0331 20.4011L31.5392 19.5316ZM24.4062 24.3108L24.5318 24.4364L25.2389 23.7293L25.1133 23.6037L24.4062 24.3108ZM25.1324 24.5175L32.018 20.6047L31.5239 19.7353L24.6383 23.6481L25.1324 24.5175ZM32.019 20.6041C33.0964 19.9884 33.7421 19.1149 33.7421 18.1355H32.7421C32.7421 18.6292 32.4172 19.2248 31.5229 19.7358L32.019 20.6041ZM32.7443 18.0891C32.7027 18.5343 32.3591 19.0578 31.536 19.5334L32.0363 20.3992C32.9984 19.8433 33.6558 19.0841 33.7399 18.1819L32.7443 18.0891Z" fill="#7A5CCF" mask="url(#path-7-inside-2_6453_29629)"/>
  </g>
  <g opacity="0.25">
  <mask id="path-9-inside-3_6453_29629" fill="white">
  <path fill-rule="evenodd" clip-rule="evenodd" d="M4.32328 0.704607L31.7857 16.3066C32.6783 16.8071 33.1788 17.4637 33.2568 18.1374C33.2568 17.4028 32.7715 16.6663 31.7857 16.103L4.32328 0.50097C2.35162 -0.625693 0.754883 0.312558 0.754883 2.56588V2.76952C0.754883 0.516195 2.35162 -0.406832 4.32328 0.704607Z"/>
  </mask>
  <path fill-rule="evenodd" clip-rule="evenodd" d="M4.32328 0.704607L31.7857 16.3066C32.6783 16.8071 33.1788 17.4637 33.2568 18.1374C33.2568 17.4028 32.7715 16.6663 31.7857 16.103L4.32328 0.50097C2.35162 -0.625693 0.754883 0.312558 0.754883 2.56588V2.76952C0.754883 0.516195 2.35162 -0.406832 4.32328 0.704607Z" fill="white"/>
  <path d="M4.32328 0.704607L4.57027 0.269865L4.56881 0.269044L4.32328 0.704607ZM31.7857 16.3066L31.5387 16.7414L31.5411 16.7427L31.7857 16.3066ZM33.2568 18.1374L32.7602 18.195L33.7568 18.1374H33.2568ZM31.7857 16.103L32.0338 15.6688L32.0327 15.6682L31.7857 16.103ZM4.32328 0.50097L4.07521 0.935093L4.0763 0.935709L4.32328 0.50097ZM4.0763 1.13935L31.5387 16.7413L32.0327 15.8719L4.57027 0.269867L4.0763 1.13935ZM31.5411 16.7427C32.3522 17.1975 32.7071 17.737 32.7602 18.195L33.7535 18.0799C33.6505 17.1904 33.0044 16.4168 32.0303 15.8705L31.5411 16.7427ZM33.7568 18.1374C33.7568 17.1602 33.1114 16.2846 32.0338 15.6689L31.5376 16.5371C32.4317 17.048 32.7568 17.6455 32.7568 18.1374H33.7568ZM32.0327 15.6682L4.57027 0.0662304L4.0763 0.935709L31.5387 16.5377L32.0327 15.6682ZM4.57135 0.0668483C3.49244 -0.549673 2.40121 -0.662172 1.54839 -0.166316C0.696018 0.329278 0.254883 1.33203 0.254883 2.56588H1.25488C1.25488 1.54641 1.61212 0.953376 2.05103 0.698178C2.4895 0.443243 3.18247 0.424949 4.07521 0.935091L4.57135 0.0668483ZM0.254883 2.56588V2.76952H1.25488V2.56588H0.254883ZM1.25488 2.76952C1.25488 1.75047 1.61177 1.16163 2.05008 0.908078C2.48959 0.653826 3.18405 0.63638 4.07775 1.14017L4.56881 0.269044C3.49086 -0.338605 2.40111 -0.450257 1.54934 0.0424769C0.696365 0.53591 0.254883 1.53524 0.254883 2.76952H1.25488Z" fill="#7A5CCF" mask="url(#path-9-inside-3_6453_29629)"/>
  </g>
  </svg>
  