<svg width="34" height="37" viewBox="0 0 34 37" fill="none" xmlns="http://www.w3.org/2000/svg">
  <path d="M0.754688 2.56598C0.754688 1.75679 0.962532 1.15404 1.3003 0.762407L18.5697 18.013V18.2393L1.31382 35.4952C0.964765 35.1196 0.754688 34.5191 0.754688 33.7053V2.56598Z" fill="white" stroke="white" stroke-width="0.4"/>
  <path d="M31.489 16.2749L31.4896 16.2752C32.4388 16.8103 32.8666 17.4903 32.8666 18.1298C32.8666 18.7696 32.4384 19.4535 31.4887 19.9962C31.4886 19.9963 31.4886 19.9963 31.4886 19.9963L24.6076 23.9065C24.6065 23.9071 24.6056 23.9076 24.6048 23.908L18.9549 18.2563V18.0147L24.606 12.3635L31.489 16.2749Z" fill="white" stroke="white" stroke-width="0.4"/>
  <path d="M1.48269 35.6904L18.7547 18.4184L24.3732 24.0387L4.02583 35.6126C4.02563 35.6127 4.02544 35.6128 4.02524 35.6129C2.95591 36.2098 2.05199 36.1655 1.48269 35.6904Z" fill="white" stroke="white" stroke-width="0.4"/>
  <path d="M4.02454 0.674901L24.3731 12.2343L18.7528 17.8528L1.48262 0.597619C2.05316 0.119564 2.95899 0.0655328 4.02404 0.674617L4.02454 0.674901Z" fill="white" stroke="white" stroke-width="0.4"/>
  <path opacity="0.25" fill-rule="evenodd" clip-rule="evenodd" d="M4.12309 0.704607L31.5855 16.3066C32.4781 16.8071 32.9786 17.4637 33.0566 18.1374C33.0566 17.4028 32.5713 16.6663 31.5855 16.103L4.12309 0.50097C2.15143 -0.625693 0.554688 0.312558 0.554688 2.56588V2.76952C0.554688 0.516195 2.15143 -0.406832 4.12309 0.704607Z" fill="white"/>
  </svg>
  