<svg width="31" height="31" viewBox="0 0 31 31" fill="none" xmlns="http://www.w3.org/2000/svg">
  <path d="M4.0454 24.4261C3.19822 22.5861 5.69759 19.6358 7.05303 18.3905C7.65122 17.8409 7.80394 17.7663 9.17838 16.3379C11.1308 14.3089 13.5989 11.6447 17.0487 11.9228C20.6811 12.2157 27.5196 21.2531 27.6469 24.7905C27.4224 29.9821 21.9746 29.909 20.5406 29.2527C19.6255 28.8339 14.641 26.5526 11.2276 27.7132C7.81417 28.8737 5.10438 26.7259 4.0454 24.4261Z" fill="#3D2582"/>
  <path d="M25.9138 7.32211C27.4935 4.25362 25.4202 2.13402 24.1861 1.45778C23.276 1.04123 21.0543 1.03912 19.4486 4.36305C17.4415 8.51797 20.0549 11.0812 20.9912 11.2971C21.9275 11.513 23.9392 11.1577 25.9138 7.32211Z" fill="#3D2582"/>
  <path d="M10.157 3.49391C11.0034 0.169454 14.0129 -0.180217 15.4119 0.0605036C16.3885 0.301018 18.0923 1.66613 17.0946 5.20246C15.8475 9.62288 12.1266 9.9804 11.2645 9.56991C10.4023 9.15942 9.09893 7.64947 10.157 3.49391Z" fill="#3D2582"/>
  <path d="M30.3742 12.4917C29.6542 10.5336 27.9446 10.2353 27.1799 10.3309C25.72 10.8478 25.1439 12.1945 24.6091 13.7121C24.0743 15.2297 25.6443 17.2852 27.8713 17.5144C30.0983 17.7436 31.2742 14.9395 30.3742 12.4917Z" fill="#3D2582"/>
  <path d="M5.36562 9.16571C7.40736 8.47151 8.72403 9.55826 9.12715 10.1884C9.62529 11.6014 8.89447 12.8774 7.99902 14.2299C7.10357 15.5824 4.44856 15.7042 2.86272 14.1884C1.27687 12.6726 2.81345 10.0335 5.36562 9.16571Z" fill="#3D2582"/>
  </svg>
  