<svg width="48" height="48" viewBox="0 0 48 48" fill="none" xmlns="http://www.w3.org/2000/svg">
  <path fill-rule="evenodd" clip-rule="evenodd" d="M34.9714 4.57611H13.0286C8.23158 4.57611 4.34286 8.38382 4.34286 13.0809V34.5666C4.34286 39.2636 8.23158 43.0714 13.0286 43.0714H34.9714C39.7684 43.0714 43.6571 39.2636 43.6571 34.5666V13.0809C43.6571 8.38382 39.7684 4.57611 34.9714 4.57611ZM13.0286 0.32373C5.83309 0.32373 0 6.0353 0 13.0809V34.5666C0 41.6122 5.83309 47.3237 13.0286 47.3237H34.9714C42.1669 47.3237 48 41.6122 48 34.5666V13.0809C48 6.0353 42.1669 0.32373 34.9714 0.32373H13.0286Z" fill="#646566"/>
  <path d="M40.3057 11.2463C40.3057 12.9077 38.9302 14.2546 37.2334 14.2546C35.5366 14.2546 34.1611 12.9077 34.1611 11.2463C34.1611 9.58488 35.5366 8.23804 37.2334 8.23804C38.9302 8.23804 40.3057 9.58488 40.3057 11.2463Z" fill="#646566"/>
  <path fill-rule="evenodd" clip-rule="evenodd" d="M24.0006 31.5546C28.4531 31.5546 32.0626 28.0203 32.0626 23.6606C32.0626 19.3008 28.4531 15.7665 24.0006 15.7665C19.548 15.7665 15.9386 19.3008 15.9386 23.6606C15.9386 28.0203 19.548 31.5546 24.0006 31.5546ZM24.0006 35.807C30.8516 35.807 36.4054 30.3689 36.4054 23.6606C36.4054 16.9523 30.8516 11.5142 24.0006 11.5142C17.1495 11.5142 11.5957 16.9523 11.5957 23.6606C11.5957 30.3689 17.1495 35.807 24.0006 35.807Z" fill="#646566"/>
  </svg>
  