<svg width="197" height="44" viewBox="0 0 197 44" fill="none" xmlns="http://www.w3.org/2000/svg">
  <g clip-path="url(#clip0_6067_25633)">
  <path d="M174.678 43.5C168.392 43.5 163.12 41.4572 158.945 37.3316C154.769 33.206 152.659 28.0975 152.659 21.9692C152.659 15.8408 154.769 10.7724 158.945 6.64679C163.124 2.55816 168.392 0.515381 174.678 0.515381C180.963 0.515381 186.195 2.55816 190.371 6.64371C194.547 10.7693 196.657 15.8778 196.657 21.9661C196.657 28.0544 194.547 33.2029 190.371 37.3285C186.195 41.4541 180.963 43.4969 174.678 43.4969V43.5ZM174.678 32.1461C177.528 32.1461 179.91 31.1632 181.823 29.2375C183.737 27.3118 184.674 24.8777 184.674 21.9692C184.674 19.0606 183.737 16.6666 181.823 14.7409C179.91 12.8152 177.528 11.8724 174.678 11.8724C171.828 11.8724 169.409 12.8152 167.532 14.7409C165.619 16.6666 164.682 19.1006 164.682 21.9692C164.682 24.8377 165.619 27.3118 167.532 29.2375C169.406 31.1632 171.788 32.1461 174.678 32.1461Z" fill="#232323"/>
  <path d="M140.045 22.0061H137.149V29.2806C135.245 31.1755 132.881 32.143 130.056 32.143C127.169 32.143 124.787 31.1601 122.913 29.2344C121 27.3087 120.063 24.8747 120.063 21.9661C120.063 19.0575 121 16.6635 122.913 14.7378C124.787 12.8121 127.169 11.8693 130.059 11.8693H136.194V0.515381H130.059C123.773 0.515381 118.501 2.55816 114.325 6.64371C110.149 10.7693 108.04 15.8778 108.04 21.9661C108.04 28.0544 110.149 33.2029 114.325 37.3285C118.501 41.4541 123.773 43.4969 130.056 43.4969C136.341 43.4969 141.57 41.4541 145.749 37.3285C146.762 36.3271 147.647 35.2673 148.419 34.1519H148.425V22.0061H140.048H140.045Z" fill="#232323"/>
  <path d="M106.025 31.7363H89.5448V0.5H77.8711V31.7363V43.4815H89.5448H106.025V31.7363Z" fill="#232323"/>
  <path d="M32.7319 6.68377C28.556 2.55816 23.284 0.515381 16.9986 0.515381H0.65918V43.4969H16.9986C23.284 43.4969 28.556 41.4541 32.7319 37.3686C36.9078 33.243 39.0173 28.1345 39.0173 22.0462C39.0173 15.9579 36.9078 10.8094 32.7319 6.68377ZM24.1443 29.2745C22.2706 31.2002 19.8887 32.143 16.9986 32.143V32.1522H12.3328V11.86H16.9986V11.8693C19.8887 11.8693 22.2675 12.8522 24.1443 14.7779C26.0577 16.7035 26.9946 19.1376 26.9946 22.0462C26.9946 24.9548 26.0577 27.3488 24.1443 29.2745Z" fill="#232323"/>
  <path d="M65.2735 11.8693H71.4088V0.515381H65.2735C58.9882 0.515381 53.7162 2.55816 49.5402 6.64371C45.3643 10.7693 43.2549 15.8778 43.2549 21.9661C43.2549 28.0544 45.3643 33.2029 49.5402 37.3285C53.7162 41.4541 58.9882 43.4969 65.2735 43.4969H71.4088V32.143H65.2735C62.3834 32.143 60.0046 31.1601 58.1279 29.2344C57.6441 28.7476 57.2247 28.23 56.8665 27.6785H71.4088V16.3338H56.842C57.2063 15.77 57.6319 15.2369 58.1279 14.7378C60.0015 12.8121 62.3834 11.8693 65.2735 11.8693Z" fill="#232323"/>
  </g>
  <defs>
  <clipPath id="clip0_6067_25633">
  <rect width="196" height="43" fill="white" transform="translate(0.65918 0.5)"/>
  </clipPath>
  </defs>
  </svg>
  