<svg width="83" height="98" viewBox="0 0 83 98" fill="none" xmlns="http://www.w3.org/2000/svg">
<mask id="path-1-inside-1_6298_50116" fill="white">
<path fill-rule="evenodd" clip-rule="evenodd" d="M50.4849 80.1487C68.4051 75.8781 81.7281 59.8054 81.7281 40.6303C81.7281 18.1908 63.4827 0 40.9759 0C18.469 0 0.223633 18.1908 0.223633 40.6303C0.223633 59.8052 13.5463 75.8777 31.4662 80.1485L40.9756 96.57L50.4849 80.1487Z"/>
</mask>
<path fill-rule="evenodd" clip-rule="evenodd" d="M50.4849 80.1487C68.4051 75.8781 81.7281 59.8054 81.7281 40.6303C81.7281 18.1908 63.4827 0 40.9759 0C18.469 0 0.223633 18.1908 0.223633 40.6303C0.223633 59.8052 13.5463 75.8777 31.4662 80.1485L40.9756 96.57L50.4849 80.1487Z" fill="#8E6947"/>
<path d="M50.4849 80.1487L50.1093 78.5728L49.4319 78.7342L49.0829 79.3368L50.4849 80.1487ZM31.4662 80.1485L32.8681 79.3367L32.5191 78.7341L31.8418 78.5726L31.4662 80.1485ZM40.9756 96.57L39.5737 97.3818L40.9756 99.8027L42.3775 97.3818L40.9756 96.57ZM80.1081 40.6303C80.1081 59.0353 67.3197 74.4714 50.1093 78.5728L50.8604 81.7245C69.4905 77.2848 83.3481 60.5756 83.3481 40.6303H80.1081ZM40.9759 1.62C62.5926 1.62 80.1081 19.0901 80.1081 40.6303H83.3481C83.3481 17.2915 64.3728 -1.62 40.9759 -1.62V1.62ZM1.84363 40.6303C1.84363 19.0901 19.3591 1.62 40.9759 1.62V-1.62C17.5789 -1.62 -1.39637 17.2915 -1.39637 40.6303H1.84363ZM31.8418 78.5726C14.6317 74.471 1.84363 59.0351 1.84363 40.6303H-1.39637C-1.39637 60.5753 12.4609 77.2844 31.0906 81.7243L31.8418 78.5726ZM42.3775 95.7581L32.8681 79.3367L30.0643 80.9603L39.5737 97.3818L42.3775 95.7581ZM49.0829 79.3368L39.5737 95.7581L42.3775 97.3818L51.8868 80.9605L49.0829 79.3368Z" fill="white" mask="url(#path-1-inside-1_6298_50116)"/>
<ellipse cx="39.1507" cy="27.0037" rx="17.2503" ry="5.26468" fill="#53361B"/>
<path fill-rule="evenodd" clip-rule="evenodd" d="M19.7139 26.1293C19.7345 23.1313 28.1933 20.7542 38.6432 20.8156C49.0105 20.8764 57.4524 23.3145 57.6474 26.281C57.65 26.2429 57.6512 26.2042 57.6509 26.1648L57.6848 30.1275C59.063 30.4626 60.5139 30.9539 61.8591 31.6738C64.6727 33.1795 67.3731 35.9269 67.4055 40.4303C67.4369 44.7872 64.9425 47.838 62.2893 49.7083C60.5781 50.9146 58.6443 51.7561 56.8481 52.2651C54.698 57.982 49.2399 62.012 42.8172 61.9743L35.0893 61.929C26.7388 61.8799 19.92 54.9733 19.8591 46.5026L19.7119 26.0527C19.7121 26.0785 19.7128 26.104 19.7139 26.1293ZM57.8175 45.6494C58.2633 45.418 58.6986 45.1576 59.1093 44.868C60.8825 43.618 61.82 42.1285 61.8076 40.3975C61.7962 38.813 61.0045 37.7351 59.3521 36.8508C58.8503 36.5823 58.3039 36.3551 57.7364 36.1638L57.8175 45.6494ZM55.6087 27.3049C55.6279 29.9716 48.144 32.0893 38.893 32.035C29.642 31.9807 22.127 29.7749 22.1078 27.1082C22.0886 24.4415 29.5725 22.3237 38.8235 22.378C48.0746 22.4323 55.5895 24.6382 55.6087 27.3049Z" fill="#F7F7F7"/>
</svg>
