<svg width="83" height="98" viewBox="0 0 83 98" fill="none" xmlns="http://www.w3.org/2000/svg">
  <mask id="path-1-inside-1_6105_27253" fill="white">
  <path fill-rule="evenodd" clip-rule="evenodd" d="M50.2613 80.1486C68.1815 75.8781 81.5044 59.8054 81.5044 40.6303C81.5044 18.1908 63.259 0 40.7522 0C18.2454 0 0 18.1908 0 40.6303C0 59.8052 13.3226 75.8776 31.2425 80.1485L40.7519 96.5701L50.2613 80.1486Z"/>
  </mask>
  <path fill-rule="evenodd" clip-rule="evenodd" d="M50.2613 80.1486C68.1815 75.8781 81.5044 59.8054 81.5044 40.6303C81.5044 18.1908 63.259 0 40.7522 0C18.2454 0 0 18.1908 0 40.6303C0 59.8052 13.3226 75.8776 31.2425 80.1485L40.7519 96.5701L50.2613 80.1486Z" fill="#6F40F3"/>
  <path d="M50.2613 80.1486L49.8857 78.5728L49.2083 78.7342L48.8594 79.3368L50.2613 80.1486ZM31.2425 80.1485L32.6444 79.3367L32.2954 78.7341L31.6181 78.5726L31.2425 80.1485ZM40.7519 96.5701L39.35 97.3819L40.7519 99.8028L42.1538 97.3819L40.7519 96.5701ZM79.8844 40.6303C79.8844 59.0353 67.0961 74.4714 49.8857 78.5728L50.6368 81.7245C69.2669 77.2848 83.1244 60.5756 83.1244 40.6303H79.8844ZM40.7522 1.62C62.3689 1.62 79.8844 19.0901 79.8844 40.6303H83.1244C83.1244 17.2915 64.1492 -1.62 40.7522 -1.62V1.62ZM1.62 40.6303C1.62 19.0901 19.1355 1.62 40.7522 1.62V-1.62C17.3553 -1.62 -1.62 17.2915 -1.62 40.6303H1.62ZM31.6181 78.5726C14.408 74.471 1.62 59.035 1.62 40.6303H-1.62C-1.62 60.5753 12.2372 77.2843 30.8669 81.7243L31.6181 78.5726ZM42.1538 95.7582L32.6444 79.3367L29.8406 80.9603L39.35 97.3819L42.1538 95.7582ZM48.8594 79.3368L39.35 95.7582L42.1538 97.3819L51.6632 80.9605L48.8594 79.3368Z" fill="white" mask="url(#path-1-inside-1_6105_27253)"/>
  <path d="M37.4795 22.435C38.3288 20.6016 40.9371 20.6016 41.7863 22.435L45.5059 30.4651C45.8516 31.2114 46.5597 31.7254 47.3769 31.8233L56.1696 32.8765C58.1772 33.117 58.9832 35.5956 57.5005 36.9692L51.0066 42.9853C50.403 43.5444 50.1326 44.3761 50.2919 45.1829L52.0066 53.8639C52.398 55.846 50.2879 57.3778 48.5222 56.3933L40.7892 52.0814C40.0705 51.6806 39.1953 51.6806 38.4766 52.0814L30.7436 56.3933C28.9779 57.3778 26.8678 55.846 27.2593 53.8639L28.9739 45.1829C29.1332 44.3761 28.8628 43.5444 28.2592 42.9853L21.7654 36.9692C20.2826 35.5956 21.0887 33.117 23.0962 32.8765L31.8889 31.8233C32.7061 31.7254 33.4142 31.2114 33.7599 30.4651L37.4795 22.435Z" fill="white"/>
  </svg>
  