<svg width="47" height="48" viewBox="0 0 47 48" fill="none" xmlns="http://www.w3.org/2000/svg">
  <path d="M35.25 43.4071C33.6181 43.4071 32.2309 42.836 31.0885 41.6936C29.9462 40.5512 29.375 39.1641 29.375 37.5321C29.375 37.3037 29.3913 37.0667 29.424 36.8213C29.4566 36.5758 29.5056 36.3558 29.5708 36.1613L15.7646 28.1321C15.2097 28.6217 14.5896 29.0056 13.9042 29.2836C13.2188 29.5617 12.5007 29.7001 11.75 29.6988C10.1181 29.6988 8.7309 29.1276 7.58854 27.9853C6.44618 26.8429 5.875 25.4558 5.875 23.8238C5.875 22.1919 6.44618 20.8047 7.58854 19.6624C8.7309 18.52 10.1181 17.9488 11.75 17.9488C12.5007 17.9488 13.2188 18.0879 13.9042 18.3659C14.5896 18.644 15.2097 19.0272 15.7646 19.5155L29.5708 11.4863C29.5056 11.2905 29.4566 11.0705 29.424 10.8264C29.3913 10.5822 29.375 10.3453 29.375 10.1155C29.375 8.48353 29.9462 7.09638 31.0885 5.95402C32.2309 4.81166 33.6181 4.24048 35.25 4.24048C36.8819 4.24048 38.2691 4.81166 39.4115 5.95402C40.5538 7.09638 41.125 8.48353 41.125 10.1155C41.125 11.7474 40.5538 13.1346 39.4115 14.2769C38.2691 15.4193 36.8819 15.9905 35.25 15.9905C34.4993 15.9905 33.7812 15.8521 33.0958 15.5753C32.4104 15.2985 31.7903 14.9147 31.2354 14.4238L17.4292 22.453C17.4944 22.6488 17.5434 22.8694 17.576 23.1149C17.6087 23.3603 17.625 23.5966 17.625 23.8238C17.625 24.0523 17.6087 24.2892 17.576 24.5347C17.5434 24.7801 17.4944 25.0001 17.4292 25.1946L31.2354 33.2238C31.7903 32.7342 32.4104 32.351 33.0958 32.0743C33.7812 31.7975 34.4993 31.6585 35.25 31.6571C36.8819 31.6571 38.2691 32.2283 39.4115 33.3707C40.5538 34.513 41.125 35.9002 41.125 37.5321C41.125 39.1641 40.5538 40.5512 39.4115 41.6936C38.2691 42.836 36.8819 43.4071 35.25 43.4071Z" fill="#646566"/>
  </svg>
  